<mxfile host="app.diagrams.net" agent="Mozilla/5.0 (Windows NT 10.0; Win64; x64) AppleWebKit/537.36 (KHTML, like Gecko) Chrome/136.0.0.0 Safari/537.36" version="26.2.14">
  <diagram name="第 1 页" id="zWXFVYyPMRA4xOsNmlc1">
    <mxGraphModel dx="1213" dy="730" grid="1" gridSize="10" guides="1" tooltips="1" connect="1" arrows="1" fold="1" page="1" pageScale="1" pageWidth="827" pageHeight="1169" math="0" shadow="0">
      <root>
        <mxCell id="0" />
        <mxCell id="1" parent="0" />
        <mxCell id="ocHfJv58KAgeVSw3aXUY-7" style="edgeStyle=orthogonalEdgeStyle;rounded=0;orthogonalLoop=1;jettySize=auto;html=1;exitX=1;exitY=0.5;exitDx=0;exitDy=0;entryX=0;entryY=0.5;entryDx=0;entryDy=0;" edge="1" parent="1" source="ocHfJv58KAgeVSw3aXUY-2" target="ocHfJv58KAgeVSw3aXUY-3">
          <mxGeometry relative="1" as="geometry" />
        </mxCell>
        <mxCell id="ocHfJv58KAgeVSw3aXUY-2" value="输入：预测损失函数L" style="rounded=0;whiteSpace=wrap;html=1;fillColor=#99CCFF;" vertex="1" parent="1">
          <mxGeometry x="90" y="300" width="130" height="60" as="geometry" />
        </mxCell>
        <mxCell id="ocHfJv58KAgeVSw3aXUY-8" style="edgeStyle=orthogonalEdgeStyle;rounded=0;orthogonalLoop=1;jettySize=auto;html=1;exitX=1;exitY=0.5;exitDx=0;exitDy=0;entryX=0;entryY=0.5;entryDx=0;entryDy=0;" edge="1" parent="1" source="ocHfJv58KAgeVSw3aXUY-3" target="ocHfJv58KAgeVSw3aXUY-4">
          <mxGeometry relative="1" as="geometry" />
        </mxCell>
        <mxCell id="ocHfJv58KAgeVSw3aXUY-3" value="&lt;pre style=&quot;font-family: Menlo, &amp;quot;Roboto Mono&amp;quot;, &amp;quot;Courier New&amp;quot;, Courier, monospace, Inter, sans-serif; overflow: auto; padding: 9.144px 13.716px; white-space: pre-wrap; word-break: break-all; color: rgb(73, 73, 73); font-size: 12.573px; font-style: normal; font-variant-ligatures: normal; font-variant-caps: normal; font-weight: 400; letter-spacing: normal; orphans: 2; text-align: start; text-indent: 0px; text-transform: none; widows: 2; word-spacing: 0px; -webkit-text-stroke-width: 0px; text-decoration-thickness: initial; text-decoration-style: initial; text-decoration-color: initial; margin: 0px !important;&quot;&gt;Grad-CAM&lt;/pre&gt;&lt;div&gt;&lt;br/&gt;&lt;/div&gt;" style="rounded=0;whiteSpace=wrap;html=1;fillColor=#FFE599;" vertex="1" parent="1">
          <mxGeometry x="260" y="300" width="120" height="60" as="geometry" />
        </mxCell>
        <mxCell id="ocHfJv58KAgeVSw3aXUY-9" style="edgeStyle=orthogonalEdgeStyle;rounded=0;orthogonalLoop=1;jettySize=auto;html=1;exitX=1;exitY=0.5;exitDx=0;exitDy=0;" edge="1" parent="1" source="ocHfJv58KAgeVSw3aXUY-4" target="ocHfJv58KAgeVSw3aXUY-5">
          <mxGeometry relative="1" as="geometry" />
        </mxCell>
        <mxCell id="ocHfJv58KAgeVSw3aXUY-4" value="&lt;pre style=&quot;font-family: Menlo, &amp;quot;Roboto Mono&amp;quot;, &amp;quot;Courier New&amp;quot;, Courier, monospace, Inter, sans-serif; overflow: auto; padding: 9.144px 13.716px; text-wrap-mode: wrap; word-break: break-all; color: rgb(73, 73, 73); font-size: 12.573px; text-align: start; margin-top: 0px !important; margin-bottom: 0px !important;&quot;&gt;Pooling&lt;/pre&gt;" style="rounded=0;whiteSpace=wrap;html=1;fillColor=#FFE599;" vertex="1" parent="1">
          <mxGeometry x="420" y="300" width="120" height="60" as="geometry" />
        </mxCell>
        <mxCell id="ocHfJv58KAgeVSw3aXUY-10" style="edgeStyle=orthogonalEdgeStyle;rounded=0;orthogonalLoop=1;jettySize=auto;html=1;exitX=1;exitY=0.5;exitDx=0;exitDy=0;" edge="1" parent="1" source="ocHfJv58KAgeVSw3aXUY-5" target="ocHfJv58KAgeVSw3aXUY-6">
          <mxGeometry relative="1" as="geometry" />
        </mxCell>
        <mxCell id="ocHfJv58KAgeVSw3aXUY-5" value="&lt;pre style=&quot;font-family: Menlo, &amp;quot;Roboto Mono&amp;quot;, &amp;quot;Courier New&amp;quot;, Courier, monospace, Inter, sans-serif; overflow: auto; padding: 9.144px 13.716px; text-wrap-mode: wrap; word-break: break-all; color: rgb(73, 73, 73); font-size: 12.573px; text-align: start; margin-top: 0px !important; margin-bottom: 0px !important;&quot;&gt;&lt;pre style=&quot;font-family: Menlo, &amp;quot;Roboto Mono&amp;quot;, &amp;quot;Courier New&amp;quot;, Courier, monospace, Inter, sans-serif; overflow: auto; padding: 9.144px 13.716px; text-wrap-mode: wrap; word-break: break-all; margin-top: 0px !important; margin-bottom: 0px !important;&quot;&gt;Normalize&lt;/pre&gt;&lt;/pre&gt;" style="rounded=0;whiteSpace=wrap;html=1;fillColor=#FFE599;" vertex="1" parent="1">
          <mxGeometry x="570" y="300" width="150" height="60" as="geometry" />
        </mxCell>
        <mxCell id="ocHfJv58KAgeVSw3aXUY-6" value="输出：评分" style="rounded=0;whiteSpace=wrap;html=1;fillColor=#99CCFF;" vertex="1" parent="1">
          <mxGeometry x="760" y="300" width="120" height="60" as="geometry" />
        </mxCell>
      </root>
    </mxGraphModel>
  </diagram>
</mxfile>
